<?xml version="1.0" standalone="no"?>
<svg xmlns:xlink="http://www.w3.org/1999/xlink" id="wave" style="transform:rotate(180deg); transition: 0.3s" viewBox="0 0 1440 300" version="1.1" xmlns="http://www.w3.org/2000/svg"><defs><linearGradient id="sw-gradient-0" x1="0" x2="0" y1="1" y2="0"><stop stop-color="rgba(9, 0, 42, 1)" offset="0%"/><stop stop-color="rgba(28.875, 0, 134.748, 1)" offset="100%"/></linearGradient></defs><path style="transform:translate(0, 0px); opacity:1" fill="url(#sw-gradient-0)" d="M0,0L40,30C80,60,160,120,240,130C320,140,400,100,480,105C560,110,640,160,720,150C800,140,880,70,960,65C1040,60,1120,120,1200,145C1280,170,1360,160,1440,130C1520,100,1600,50,1680,65C1760,80,1840,160,1920,165C2000,170,2080,100,2160,95C2240,90,2320,150,2400,185C2480,220,2560,230,2640,240C2720,250,2800,260,2880,230C2960,200,3040,130,3120,115C3200,100,3280,140,3360,130C3440,120,3520,60,3600,70C3680,80,3760,160,3840,170C3920,180,4000,120,4080,125C4160,130,4240,200,4320,225C4400,250,4480,230,4560,220C4640,210,4720,210,4800,185C4880,160,4960,110,5040,115C5120,120,5200,180,5280,185C5360,190,5440,140,5520,110C5600,80,5680,70,5720,65L5760,60L5760,300L5720,300C5680,300,5600,300,5520,300C5440,300,5360,300,5280,300C5200,300,5120,300,5040,300C4960,300,4880,300,4800,300C4720,300,4640,300,4560,300C4480,300,4400,300,4320,300C4240,300,4160,300,4080,300C4000,300,3920,300,3840,300C3760,300,3680,300,3600,300C3520,300,3440,300,3360,300C3280,300,3200,300,3120,300C3040,300,2960,300,2880,300C2800,300,2720,300,2640,300C2560,300,2480,300,2400,300C2320,300,2240,300,2160,300C2080,300,2000,300,1920,300C1840,300,1760,300,1680,300C1600,300,1520,300,1440,300C1360,300,1280,300,1200,300C1120,300,1040,300,960,300C880,300,800,300,720,300C640,300,560,300,480,300C400,300,320,300,240,300C160,300,80,300,40,300L0,300Z"/></svg>